# xmcd
#
# Track frame offsets:
# 150
# 22836
# 37517
# 54493
# 74021
# 90364
# 101179
# 113489
# 130291
# 141148
# 157684
#
# Disc length: 2292 seconds
#
#
# Revision: 0
# Processed by: cddbd v1.5.1PL0 Copyright (c) Steve Scherf et al.
# Submitted via: FreeRIP 2.941 
#
DISCID=7f08f20b
DTITLE=VS Sacre Coeur Wien - We are the children
DYEAR=2004
DGENRE=Other
TTITLE0=We are the world
TTITLE1=Morning has broken
TTITLE2=Zeig mir den Platz an der Sonne
TTITLE3=Sailing
TTITLE4=Hey Baby
TTITLE5=Yesterday
TTITLE6=Marmor Stein und Eisen bricht
TTITLE7=Über den Wolken
TTITLE8=Maybe
TTITLE9=Aber bitte mit Sahne
TTITLE10=All kinds of everything
EXTD=
EXTT0=
EXTT1=
EXTT2=
EXTT3=
EXTT4=
EXTT5=
EXTT6=
EXTT7=
EXTT8=
EXTT9=
EXTT10=
PLAYORDER=
